<?xml version="1.0" encoding="UTF-8"?>
<!DOCTYPE svg PUBLIC "-//W3C//DTD SVG 1.1//EN" "http://www.w3.org/Graphics/SVG/1.1/DTD/svg11.dtd">
<!-- Creator: CorelDRAW (Versión de evaluación) -->
<svg xmlns="http://www.w3.org/2000/svg" xml:space="preserve" width="215.9mm" height="279.4mm" version="1.1" style="shape-rendering:geometricPrecision; text-rendering:geometricPrecision; image-rendering:optimizeQuality; fill-rule:evenodd; clip-rule:evenodd"
viewBox="0 0 21590 27940"
 xmlns:xlink="http://www.w3.org/1999/xlink"
 xmlns:xodm="http://www.corel.com/coreldraw/odm/2003">
 <defs>
  <style type="text/css">
   <![CDATA[
    .str0 {stroke:#3E4095;stroke-width:7.62;stroke-miterlimit:22.9256}
    .fil1 {fill:none}
    .fil0 {fill:#003399}
   ]]>
  </style>
 </defs>
 <g id="Capa_x0020_1">
  <metadata id="CorelCorpID_0Corel-Layer"/>
  <g>
   <path class="fil0" d="M10987.89 11305.29c0,0 -18.88,-56.61 -21.33,-85.73 -87.57,-1038.92 714.45,-944.42 888.74,-799.75 279.01,141.54 622.54,904.4 597.81,884.24 -56.09,-45.73 -812.29,630.54 -799.92,728.54l-665.3 -727.3zm665.3 727.3c0,0 -257.52,-137.03 -257.52,-137.03 -54.62,-37.61 25.03,-113.42 25.83,-113.85 17.99,-9.61 -68.84,46.51 -90.93,31.74 -16.48,-11 -73.87,-108.3 -73.87,-108.3 0,0 0,0 0,0 -48.91,56.8 -123.64,71.02 -124.29,66.86 -27.9,-176.5 -88.07,-330.26 -121.76,-409.55 -15.87,-37.34 -22.76,-57.17 -22.78,-57.16l665.32 727.29zm-701.68 2006.97c0,0 -165.46,771.09 -165.46,771.09l1219.74 -232.6c0,0 463.75,-939.69 463.75,-939.69 655.56,-971.77 223.77,-2903.04 -149.4,-1823.74 0,0 -601,2026.97 -601.02,2026.99 -25.85,42.61 -396.46,253.03 -767.61,197.95zm-900.74 496.83c-604.59,530.05 197.54,128.52 295.91,136.95 148.45,12.75 244.54,64.32 342.57,30.61 0,0 63.85,-143.81 42.39,-358.87 -4.98,-49.84 -39.43,-70.36 -153.32,-69.55 -154.97,1.09 -421.29,167.72 -527.55,260.86zm2355.8 -3095.52c-704.44,664.53 -1304.55,1386.87 -1272.88,2469.78l544.62 -139.32c242.75,-776.82 481.56,-1691.96 728.26,-2330.46zm-3404.17 4929.03c0,0 -870.12,-301.96 47.11,-1302.85 0,0 3443.61,-312.03 3443.61,-312.03 369.41,-52.78 839.09,812.7 73.88,1562.08l-3564.6 52.8zm3645.68 114.57l743.07 1058.04 -4018.47 -12.14c0,0 -738.85,-852.17 -201.5,-1028.92l3476.9 -16.98zm100.11 -6248.74c-132.41,65.96 -176,294.75 -146.31,489.63 28.77,188.94 -1.13,218.04 -39.85,482.09 -0.64,4.4 66.93,23.25 128.84,-9.38 0,0 0,0 0,0 0,0 6.3,122.84 16.15,140.28 13.18,23.37 131.46,0.27 121.92,-0.01 -1.25,-0.04 -131.73,50.15 -85.5,79.15 2.81,1.75 93.44,80.59 93.44,80.59l-88.69 -1262.35zm88.7 1262.35c207.76,192.53 231.68,107.13 285.4,177.1 55.14,71.8 -130.27,428.82 -69.9,400.63l721.37 -336.84c-16.14,-104.25 -422.13,-1768.59 -1025.57,-1503.24l88.7 1262.35zm-211.79 -1304.19c642.01,-1049.84 1779.01,250.32 1858.47,1538.78 32.66,529.64 191.94,953.1 137.04,1126.07 -247.12,-454.51 -467.33,-486.38 -663.5,-896.22 -277.93,-580.65 -425.76,-2111.24 -1332.01,-1768.63zm-540.49 4456.45l1168.44 -2483.84c25.48,-85.56 679.03,-668.11 715.45,251.22 -215.45,1121.96 -600.52,1629.94 -994.2,1992.18 -213.36,196.33 -611.2,218.08 -889.69,240.44zm630.76 19.4c60.7,28.8 1053.28,-347.27 1395.18,-2351.66l139.52 153.79 -155.07 5064.17 -594.7 1.2 -813.64 -1175.14c254.52,-73.36 732.27,-1237.86 28.71,-1692.36zm1611.93 -2099.66l-88.86 4971.71 3157.8 -18.63c-341.93,-417.99 -816.73,-1228.52 -1025.8,-1253.94l-1352.6 -164.42c-82.33,-1058.62 -66.97,-1966.62 -356.09,-3063.68 -171.53,-182.25 -213.11,-337.06 -334.45,-471.04zm2440.09 3818.8l833.25 1140.81c416.55,-748.04 -498.62,-1754.46 -833.25,-1140.81z"/>
  </g>
  <path class="fil1 str0" d="M5049.8 7647.34c-173.08,-385.5 -214.37,-820.96 -135.43,-1274.89 57.6,-331.27 148.91,-662.89 449.79,-1039.12 679.04,-849.14 2142.19,-503.65 2486.83,376.11 306.75,783.01 107.27,1359.54 -428.24,2298.9m5053.53 2880.08c-125.67,-476.27 -14.05,-979.39 292.5,-1319.09 473.85,-525.1 1261.75,-507.21 1759.45,39.94 497.7,547.15 517.04,1416.72 43.19,1941.81"/>
  <path class="fil0" d="M7831.82 17179.42c-31.3,-100.73 -200.3,-410.87 -564.88,-436.03 -304.48,46.1 -516.8,289.3 -725.13,490.54 -156.25,201.23 1321.32,46.23 1290.01,-54.51zm-1954.5 -5688c-34.2,-21.37 345.32,-2751.13 -64.47,-2998.05 -122.49,-138.27 -660.45,672.28 -799.07,1439.07 -446.15,2467.93 -398.33,6452.34 -398.33,6452.34 -33.68,2227.95 990.81,94.69 1012.06,-296.24l249.81 -4597.12zm254.43 -2169.22c0,0 -296.76,6675.24 -393.25,7070.87 -96.47,395.62 -339.52,745.58 -455.33,830.29 -220.37,161.16 -112.17,468.21 1282.14,-285.38 408.9,-264.46 669.69,-365.56 864.25,-359.08l-115.3 -5677.31c-574.9,-392.33 -791.37,-689.49 -1182.51,-1579.39zm4319 566.69c1034.93,377.05 -183.94,275.12 -303.92,338.75 -181.08,96.06 -276.2,215.31 -417.29,223.32 0,0 -154.18,-155.87 -236.97,-451.15 -19.21,-68.48 13.83,-113.93 158.21,-173.64 196.5,-81.23 618.12,-3.54 799.97,62.72zm-1239.01 -142.99c0,0 210.43,896.18 433.56,965.03 11.78,3.63 -1646.69,163.92 -2224.1,65.45 -479.67,-81.81 -989.41,-1129.94 -989.41,-1129.94 -430.37,-758.27 -589.78,-1460.32 -426.89,-1573.74 203.33,-141.6 396.26,-134.28 592.17,284.09 0,0 786.87,1355.34 1198.71,1683.06 0,0 929.5,-90.23 1415.96,-293.95zm-2690.53 -2055.26c0,0 110.3,1382.31 544.29,-129.09 15.22,-53.04 28.86,-72.13 33.88,-87.91 2.42,-60.29 -45.9,-105.96 -87.33,-114.99 0,0 113.21,11.24 134.61,2.93 0,0 49.34,-144.23 49.34,-144.23 50.63,24.92 147.15,54.82 153.42,38.88 21.72,-55.09 -67.39,-235.77 8.96,-447.73 76.36,-211.95 97.36,-563.79 -64.5,-664.29 127.48,-21.04 216,-152.58 -36.32,-283.81 -2134.16,-1110.09 -3049.44,5202.27 -1689.77,2506.65 312.16,-618.88 633.49,-819.64 812.29,-806.92 81.24,5.8 133.04,55.7 141.13,130.51z"/>
 </g>
</svg>
